<?xml version="1.0" standalone="no"?>
<!DOCTYPE svg PUBLIC "-//W3C//DTD SVG 20010904//EN"
 "http://www.w3.org/TR/2001/REC-SVG-20010904/DTD/svg10.dtd">
<svg version="1.0" xmlns="http://www.w3.org/2000/svg"
 width="700.000000pt" height="700.000000pt" viewBox="0 0 700.000000 700.000000"
 preserveAspectRatio="xMidYMid meet">
<metadata>
Created by potrace 1.14, written by Peter Selinger 2001-2017
</metadata>
<g transform="translate(0.000000,700.000000) scale(0.100000,-0.100000)"
fill="#000000" stroke="none">
<path d="M0 3500 l0 -3500 3500 0 3500 0 0 3500 0 3500 -3500 0 -3500 0 0
-3500z m2363 1378 c46 -108 1118 -2639 1124 -2655 4 -10 -49 -13 -243 -13
l-249 0 -165 385 -165 385 -490 0 -490 0 -156 -383 -155 -382 -248 -3 c-234
-2 -248 -1 -242 15 3 10 255 629 558 1376 l552 1357 167 0 167 0 35 -82z
m2702 -10 c20 -51 268 -668 551 -1371 283 -702 514 -1280 514 -1282 0 -3 -105
-5 -234 -5 l-234 0 -54 133 c-30 72 -101 246 -158 385 l-104 252 -465 -2 -466
-3 -93 -240 c-51 -132 -118 -304 -148 -382 l-56 -143 -235 0 c-220 0 -235 1
-229 18 4 9 238 616 521 1347 283 732 518 1342 524 1358 l11 27 159 0 159 0
37 -92z"/>
<path d="M2013 3796 l-141 -361 149 -3 c82 -1 216 -1 298 0 l149 3 -152 357
c-83 196 -154 359 -156 361 -3 3 -69 -158 -147 -357z"/>
<path d="M4732 3806 c-72 -194 -132 -358 -132 -364 0 -9 74 -12 281 -12 221 0
280 3 276 13 -26 67 -281 695 -286 704 -3 7 -66 -147 -139 -341z"/>
</g>
</svg>
