<?xml version="1.0" encoding="utf-8"?><svg xmlns="http://www.w3.org/2000/svg" xmlns:xlink="http://www.w3.org/1999/xlink"><symbol fill="none" viewBox="0 0 24 24" id="arrow-left" xmlns="http://www.w3.org/2000/svg"><path d="M20.328 11v2H7.5l3.243 3.243-1.415 1.414L3.672 12l5.656-5.657 1.415 1.414L7.5 11h12.828z" fill="currentColor"/></symbol><symbol fill="none" viewBox="0 0 24 24" id="arrow-right" xmlns="http://www.w3.org/2000/svg"><path d="M15.038 6.343l-1.411 1.418 3.27 3.255-13.605.013.002 2 13.568-.013-3.215 3.23 1.417 1.41 5.644-5.67-5.67-5.643z" fill="currentColor"/></symbol><symbol fill="none" viewBox="0 0 24 24" id="bulb" xmlns="http://www.w3.org/2000/svg"><path fill-rule="evenodd" clip-rule="evenodd" d="M4 9a7.997 7.997 0 004 6.93V16a4 4 0 108 0v-.07A8 8 0 104 9zm12 4.472a6 6 0 10-8 0h2V16a2 2 0 104 0v-2.53l2 .001z" fill="currentColor"/><path d="M10 21.006V21c.588.34 1.271.535 2 .535.729 0 1.412-.195 2-.535v.006a2 2 0 11-4 0z" fill="currentColor"/></symbol><symbol fill="none" viewBox="0 0 40 40" id="check-circle" xmlns="http://www.w3.org/2000/svg"><circle cx="20" cy="20" r="20" fill="#333"/><path d="M11 20.906L17.383 27 31 14" stroke="#F8F3E8" stroke-width="3"/></symbol><symbol fill="none" viewBox="0 0 21 20" id="check-no" xmlns="http://www.w3.org/2000/svg"><path d="M14.03 6.464a.833.833 0 010 1.179l-2.484 2.484 2.229 2.23a.833.833 0 11-1.178 1.179l-2.23-2.23-2.23 2.23a.833.833 0 01-1.178-1.179l2.23-2.23-2.485-2.484a.833.833 0 111.178-1.179l2.485 2.485 2.484-2.485a.833.833 0 011.179 0z" fill="currentColor"/><path fill-rule="evenodd" clip-rule="evenodd" d="M3.7.833a2.5 2.5 0 00-2.5 2.5v13.334a2.5 2.5 0 002.5 2.5h13.334a2.5 2.5 0 002.5-2.5V3.333a2.5 2.5 0 00-2.5-2.5H3.7zM17.034 2.5H3.7a.833.833 0 00-.833.833v13.334c0 .46.373.833.833.833h13.334c.46 0 .833-.373.833-.833V3.333a.833.833 0 00-.833-.833z" fill="currentColor"/></symbol><symbol fill="none" viewBox="0 0 19 20" id="check-no-policy" xmlns="http://www.w3.org/2000/svg"><path d="M12.994 9.167a.833.833 0 010 1.666H6.327a.833.833 0 010-1.666h6.667z" fill="currentColor"/><path fill-rule="evenodd" clip-rule="evenodd" d="M18.827 4.167A3.333 3.333 0 0015.494.833H3.827A3.333 3.333 0 00.494 4.167v11.666a3.333 3.333 0 003.333 3.334h11.667a3.333 3.333 0 003.333-3.334V4.167zM15.494 2.5H3.827c-.92 0-1.666.746-1.666 1.667v11.666c0 .92.746 1.667 1.666 1.667h11.667c.92 0 1.667-.746 1.667-1.667V4.167c0-.92-.747-1.667-1.667-1.667z" fill="currentColor"/></symbol><symbol fill="none" viewBox="0 0 24 24" id="check-o" xmlns="http://www.w3.org/2000/svg"><path d="M10.243 16.314L6 12.07l1.414-1.414 2.829 2.828 5.656-5.657 1.415 1.415-7.071 7.07z" fill="currentColor"/><path fill-rule="evenodd" clip-rule="evenodd" d="M1 12C1 5.925 5.925 1 12 1s11 4.925 11 11-4.925 11-11 11S1 18.075 1 12zm11 9a9 9 0 110-18 9 9 0 010 18z" fill="currentColor"/></symbol><symbol fill="none" viewBox="0 0 21 20" id="check-yes" xmlns="http://www.w3.org/2000/svg"><path d="M8.924 13.595L5.39 10.059l1.178-1.178 2.357 2.357 4.714-4.714 1.179 1.178-5.893 5.893z" fill="currentColor"/><path fill-rule="evenodd" clip-rule="evenodd" d="M1.222 4.167A3.333 3.333 0 014.555.833h11.667a3.333 3.333 0 013.333 3.334v11.666a3.333 3.333 0 01-3.333 3.334H4.555a3.333 3.333 0 01-3.333-3.334V4.167zM4.555 2.5h11.667c.92 0 1.667.746 1.667 1.667v11.666c0 .92-.747 1.667-1.667 1.667H4.555c-.92 0-1.666-.746-1.666-1.667V4.167c0-.92.746-1.667 1.666-1.667z" fill="currentColor"/></symbol><symbol fill="none" viewBox="0 0 24 24" id="chevron-down" xmlns="http://www.w3.org/2000/svg"><path d="M6.343 7.757L4.93 9.172l7.07 7.07 7.071-7.07-1.414-1.415L12 13.414 6.343 7.757z" fill="currentColor"/></symbol><symbol fill="none" viewBox="0 0 24 24" id="chevron-left" xmlns="http://www.w3.org/2000/svg"><path d="M16.243 6.343L14.828 4.93 7.758 12l7.07 7.071 1.415-1.414L10.586 12l5.657-5.657z" fill="currentColor"/></symbol><symbol fill="none" viewBox="0 0 24 24" id="chevron-right" xmlns="http://www.w3.org/2000/svg"><path d="M10.586 6.343L12 4.93 19.071 12 12 19.071l-1.414-1.414L16.243 12l-5.657-5.657z" fill="currentColor"/></symbol><symbol fill="none" viewBox="0 0 24 24" id="chevron-up" xmlns="http://www.w3.org/2000/svg"><path d="M17.657 16.243l1.414-1.414-7.07-7.072-7.072 7.072 1.414 1.414L12 10.586l5.657 5.657z" fill="currentColor"/></symbol><symbol fill="none" viewBox="0 0 24 24" id="close" xmlns="http://www.w3.org/2000/svg"><path d="M6.225 4.811a1 1 0 00-1.414 1.414L10.586 12 4.81 17.775a1 1 0 101.414 1.414L12 13.414l5.775 5.775a1 1 0 001.414-1.414L13.414 12l5.775-5.775a1 1 0 00-1.414-1.414L12 10.586 6.225 4.81z" fill="currentColor"/></symbol><symbol fill="none" viewBox="0 0 24 24" id="copy" xmlns="http://www.w3.org/2000/svg"><path d="M13 7H7V5h6v2zm0 4H7V9h6v2zm-6 4h6v-2H7v2z" fill="currentColor"/><path fill-rule="evenodd" clip-rule="evenodd" d="M3 19V1h14v4h4v18H7v-4H3zm12-2V3H5v14h10zm2-10v12H9v2h10V7h-2z" fill="currentColor"/></symbol><symbol fill="none" viewBox="0 0 24 24" id="danger" xmlns="http://www.w3.org/2000/svg"><path d="M12 6a1 1 0 011 1v6a1 1 0 11-2 0V7a1 1 0 011-1zm0 10a1 1 0 100 2 1 1 0 000-2z" fill="currentColor"/><path fill-rule="evenodd" clip-rule="evenodd" d="M12 2C6.477 2 2 6.477 2 12s4.477 10 10 10 10-4.477 10-10S17.523 2 12 2zM4 12a8 8 0 1016 0 8 8 0 00-16 0z" fill="currentColor"/></symbol><symbol fill="none" viewBox="0 0 24 24" id="enter" xmlns="http://www.w3.org/2000/svg"><path d="M20 5H8v4H6V3h16v18H6v-6h2v4h12V5z" fill="currentColor"/><path d="M13.074 16.95l-1.414-1.414L14.196 13H2v-2h12.196L11.66 8.465l1.414-1.415 4.95 4.95-4.95 4.95z" fill="currentColor"/></symbol><symbol fill="none" viewBox="0 0 24 24" id="eye" xmlns="http://www.w3.org/2000/svg"><path fill-rule="evenodd" clip-rule="evenodd" d="M16 12a4 4 0 11-8 0 4 4 0 018 0zm-2 0a2 2 0 11-4 0 2 2 0 014 0z" fill="currentColor"/><path fill-rule="evenodd" clip-rule="evenodd" d="M12 3c5.591 0 10.29 3.824 11.622 9-1.332 5.176-6.03 9-11.622 9S1.71 17.176.378 12C1.71 6.824 6.408 3 12 3zm0 16c-4.476 0-8.269-2.942-9.543-7C3.731 7.942 7.524 5 12 5c4.476 0 8.269 2.942 9.543 7-1.274 4.058-5.067 7-9.543 7z" fill="currentColor"/></symbol><symbol fill="none" viewBox="0 0 39 38" id="facebook" xmlns="http://www.w3.org/2000/svg"><path d="M38.232 19.116C38.232 8.56 29.674 0 19.116 0 8.56 0 0 8.559 0 19.116 0 28.657 6.99 36.566 16.13 38V24.642h-4.854v-5.526h4.853v-4.211c0-4.791 2.854-7.438 7.22-7.438 2.091 0 4.28.374 4.28.374v4.704h-2.41c-2.375 0-3.116 1.474-3.116 2.987v3.584h5.302l-.848 5.526h-4.454V38c9.139-1.434 16.13-9.343 16.13-18.884z" fill="currentColor"/></symbol><symbol fill="none" viewBox="0 0 24 24" id="file" xmlns="http://www.w3.org/2000/svg"><path fill-rule="evenodd" clip-rule="evenodd" d="M3 5a3 3 0 013-3h8a7 7 0 017 7v10a3 3 0 01-3 3H6a3 3 0 01-3-3V5zm10-1H6a1 1 0 00-1 1v14a1 1 0 001 1h12a1 1 0 001-1V9h-6V4zm5.584 3A5.009 5.009 0 0015 4.1V7h3.584z" fill="currentColor"/></symbol><symbol fill="none" viewBox="0 0 24 24" id="file-document" xmlns="http://www.w3.org/2000/svg"><path d="M7 18h10v-2H7v2zm10-4H7v-2h10v2zM7 10h4V8H7v2z" fill="currentColor"/><path fill-rule="evenodd" clip-rule="evenodd" d="M6 2a3 3 0 00-3 3v14a3 3 0 003 3h12a3 3 0 003-3V9a7 7 0 00-7-7H6zm0 2h7v5h6v10a1 1 0 01-1 1H6a1 1 0 01-1-1V5a1 1 0 011-1zm9 .1A5.009 5.009 0 0118.584 7H15V4.1z" fill="currentColor"/></symbol><symbol fill="none" viewBox="0 0 24 24" id="film" xmlns="http://www.w3.org/2000/svg"><path d="M6 7a1 1 0 100 2 1 1 0 000-2zm11 1a1 1 0 112 0 1 1 0 01-2 0zM6 11a1 1 0 100 2 1 1 0 000-2zm11 1a1 1 0 112 0 1 1 0 01-2 0zM6 15a1 1 0 100 2 1 1 0 000-2zm11 1a1 1 0 112 0 1 1 0 01-2 0z" fill="currentColor"/><path fill-rule="evenodd" clip-rule="evenodd" d="M4 3a3 3 0 00-3 3v12a3 3 0 003 3h16a3 3 0 003-3V6a3 3 0 00-3-3H4zm16 2H4a1 1 0 00-1 1v12a1 1 0 001 1h16a1 1 0 001-1V6a1 1 0 00-1-1z" fill="currentColor"/></symbol><symbol fill="none" viewBox="0 0 24 24" id="home" xmlns="http://www.w3.org/2000/svg"><path fill-rule="evenodd" clip-rule="evenodd" d="M21 8.772l-6.98-6.979a3 3 0 00-4.242 0L3 8.571v14.515h7v-6a2 2 0 114 0v6h7V8.772zm-9.808-5.565L5 9.4v11.686h3v-4a4 4 0 018 0v4h3V9.6l-6.393-6.394a1 1 0 00-1.415 0z" fill="currentColor"/></symbol><symbol fill="none" viewBox="0 0 24 24" id="image" xmlns="http://www.w3.org/2000/svg"><path fill-rule="evenodd" clip-rule="evenodd" d="M7 7a3 3 0 100 6 3 3 0 000-6zm-1 3a1 1 0 112 0 1 1 0 01-2 0z" fill="currentColor"/><path fill-rule="evenodd" clip-rule="evenodd" d="M3 3a3 3 0 00-3 3v12a3 3 0 003 3h18a3 3 0 003-3V6a3 3 0 00-3-3H3zm18 2H3a1 1 0 00-1 1v12a1 1 0 001 1h4.314l6.878-6.879a3 3 0 014.243 0L22 15.686V6a1 1 0 00-1-1zm0 14H10.142l5.465-5.464a1 1 0 011.414 0l4.886 4.886A1 1 0 0121 19z" fill="currentColor"/></symbol><symbol fill="none" viewBox="0 0 24 24" id="info" xmlns="http://www.w3.org/2000/svg"><path d="M11 10.98a1 1 0 112 0v6a1 1 0 11-2 0v-6zm1-4.929a1 1 0 100 2 1 1 0 000-2z" fill="currentColor"/><path fill-rule="evenodd" clip-rule="evenodd" d="M12 2C6.477 2 2 6.477 2 12s4.477 10 10 10 10-4.477 10-10S17.523 2 12 2zM4 12a8 8 0 1016 0 8 8 0 00-16 0z" fill="currentColor"/></symbol><symbol fill="none" viewBox="0 0 24 24" id="instagram" xmlns="http://www.w3.org/2000/svg"><path fill-rule="evenodd" clip-rule="evenodd" d="M12 7a5 5 0 100 10 5 5 0 000-10zm-3 5a3 3 0 106 0 3 3 0 00-6 0z" fill="currentColor"/><path d="M18 5a1 1 0 100 2 1 1 0 000-2z" fill="currentColor"/><path fill-rule="evenodd" clip-rule="evenodd" d="M5 1a4 4 0 00-4 4v14a4 4 0 004 4h14a4 4 0 004-4V5a4 4 0 00-4-4H5zm14 2H5a2 2 0 00-2 2v14a2 2 0 002 2h14a2 2 0 002-2V5a2 2 0 00-2-2z" fill="currentColor"/></symbol><symbol fill="none" viewBox="0 0 24 24" id="link" xmlns="http://www.w3.org/2000/svg"><path d="M14.828 12l1.415 1.414 2.828-2.828a4 4 0 00-5.657-5.657l-2.828 2.828L12 9.172l2.828-2.829a2 2 0 112.829 2.829L14.828 12zM12 14.829l1.414 1.414-2.828 2.828a4 4 0 01-5.657-5.657l2.828-2.828L9.172 12l-2.829 2.829a2 2 0 102.829 2.828L12 14.828z" fill="currentColor"/><path d="M14.829 10.586a1 1 0 00-1.415-1.415l-4.242 4.243a1 1 0 101.414 1.414l4.242-4.242z" fill="currentColor"/></symbol><symbol fill="none" viewBox="0 0 24 24" id="lock" xmlns="http://www.w3.org/2000/svg"><path fill-rule="evenodd" clip-rule="evenodd" d="M18 10.5a3 3 0 013 3v6a3 3 0 01-3 3H6a3 3 0 01-3-3v-6a3 3 0 013-3v-3a6 6 0 1112 0v3zm-6-7a4 4 0 014 4v3H8v-3a4 4 0 014-4zm6 9H6a1 1 0 00-1 1v6a1 1 0 001 1h12a1 1 0 001-1v-6a1 1 0 00-1-1z" fill="currentColor"/></symbol><symbol fill="none" viewBox="0 0 24 24" id="mail" xmlns="http://www.w3.org/2000/svg"><path fill-rule="evenodd" clip-rule="evenodd" d="M3.01 5.838a1 1 0 011-1H20a1 1 0 011 1v11.324a2 2 0 01-2 2H5a2 2 0 01-2-2v-11c0-.048.003-.094.01-.14v-.184zM5 8.062v9.1h14v-9.1l-4.879 4.879a3 3 0 01-4.242 0L5 8.06zm1.572-1.256h10.856l-4.72 4.72a1 1 0 01-1.415 0l-4.72-4.72z" fill="currentColor"/></symbol><symbol fill="none" viewBox="0 0 24 24" id="menu" xmlns="http://www.w3.org/2000/svg"><path d="M2 6a1 1 0 011-1h18a1 1 0 110 2H3a1 1 0 01-1-1zm0 6.032a1 1 0 011-1h18a1 1 0 110 2H3a1 1 0 01-1-1zm1 5.032a1 1 0 100 2h18a1 1 0 000-2H3z" fill="currentColor"/></symbol><symbol fill="none" viewBox="0 0 55 36" id="method-amex" xmlns="http://www.w3.org/2000/svg"><path d="M0 4.5C0 2.015 2.052 0 4.583 0h45.834C52.948 0 55 2.015 55 4.5v27c0 2.485-2.052 4.5-4.583 4.5H4.583C2.052 36 0 33.985 0 31.5v-27z" fill="#D4DEF7"/><path d="M40.589 11.105l-1.065 2.303h2.134l-1.07-2.303zm-12.28 1.427c.2-.094.318-.297.318-.55a.523.523 0 00-.324-.51c-.183-.093-.464-.104-.734-.104h-1.904v1.283h1.879c.3 0 .552-.004.764-.12zM3.912 11.105L2.86 13.408h2.111l-1.058-2.303zM52.899 25.86h-2.986v-1.239h2.974c.295 0 .501-.034.626-.143a.484.484 0 00.182-.377.454.454 0 00-.189-.382c-.112-.088-.275-.128-.544-.128-1.452-.044-3.263.04-3.263-1.79 0-.837.596-1.72 2.218-1.72h3.08v-1.15h-2.862c-.863 0-1.49.185-1.935.473v-.472h-4.232c-.677 0-1.471.15-1.847.472v-.472h-7.558v.472c-.602-.388-1.617-.472-2.085-.472h-4.986v.472c-.475-.412-1.534-.472-2.179-.472h-5.58l-1.276 1.234-1.196-1.234h-8.334v8.064h8.177l1.316-1.254 1.239 1.254 5.04.004v-1.897h.496c.669.01 1.458-.015 2.154-.284v2.177h4.157v-2.102h.201c.256 0 .281.01.281.238v1.863h12.63c.803 0 1.64-.183 2.105-.516v.516h4.006c.834 0 1.648-.104 2.268-.371v-1.502c-.376.49-1.108.739-2.098.739zM27.26 23.956h-1.929v1.939h-3.005l-1.904-1.913-1.978 1.913H12.32v-5.78h6.219l1.902 1.895 1.967-1.895h4.94c1.227 0 2.606.304 2.606 1.904 0 1.606-1.341 1.937-2.693 1.937zm9.277-.262c.219.282.25.546.257 1.055v1.146h-1.553v-.723c0-.348.038-.863-.25-1.132-.225-.206-.57-.256-1.134-.256h-1.653v2.11h-1.553v-5.778h3.57c.782 0 1.352.03 1.86.272.488.264.795.624.795 1.284 0 .922-.689 1.392-1.096 1.537.344.114.625.317.757.485zm6.387-2.383h-3.62v1.05h3.532v1.18h-3.533v1.15l3.621.004v1.2h-5.16v-5.78h5.16v1.196zm3.973 4.584h-3.011v-1.24h3c.292 0 .5-.034.63-.143a.49.49 0 00.183-.377.476.476 0 00-.188-.382c-.119-.088-.282-.128-.55-.128-1.447-.044-3.258.04-3.258-1.789 0-.838.59-1.72 2.21-1.72h3.1v1.23h-2.836c-.28 0-.464.009-.619.104-.17.094-.232.232-.232.416 0 .218.144.366.338.43.163.05.338.066.602.066l.832.02c.84.018 1.415.148 1.766.464.3.279.462.63.462 1.225 0 1.243-.87 1.823-2.429 1.823zm-11.992-4.491c-.186-.1-.462-.105-.737-.105h-1.904v1.298h1.878c.301 0 .557-.01.763-.119.2-.108.32-.307.32-.554a.541.541 0 00-.32-.52zm17.276-.105c-.282 0-.468.01-.626.105-.163.093-.226.232-.226.416 0 .218.138.366.338.43.164.05.339.066.596.066l.838.02c.846.018 1.41.148 1.755.465.062.044.1.093.143.143v-1.645h-2.818zm-24.867 0h-2.016v1.472h1.998c.594 0 .963-.263.964-.763 0-.505-.388-.709-.946-.709zm-13.455 0v1.051h3.394v1.18H13.86v1.149h3.801l1.767-1.695-1.692-1.685H13.86zm9.926 4.042v-4.633l-2.373 2.279 2.373 2.354zm-9.796-9.279v.996h12.917l-.006-2.107h.25c.175.006.226.02.226.278v1.829h6.681v-.49c.54.258 1.377.49 2.48.49h2.81l.602-1.283h1.334l.588 1.283h5.417v-1.219l.82 1.219h4.34V9h-4.295v.952L47.552 9h-4.407v.952L42.592 9H36.64c-.997 0-1.873.124-2.58.47V9h-4.11v.47C29.5 9.115 28.887 9 28.204 9h-15.01l-1.007 2.081L11.152 9H6.424v.952L5.904 9H1.872L0 12.831v3.065l2.769-5.778h2.297l2.63 5.47v-5.47h2.523l2.024 3.92 1.858-3.92h2.575v5.778H15.09l-.006-4.525-2.242 4.525h-1.357l-2.248-4.529v4.529H6.093l-.594-1.289h-3.22l-.6 1.289H0v1.162h2.642l.596-1.283H4.57l.594 1.283h5.198v-.98l.464.984h2.698l.464-1zm20.355-5.27c.5-.461 1.283-.674 2.348-.674h1.497v1.238h-1.465c-.565 0-.883.075-1.19.342-.264.243-.445.703-.445 1.309 0 .619.138 1.065.425 1.357.239.228.671.298 1.078.298h.695l2.179-4.544h2.316l2.618 5.465v-5.465h2.354l2.718 4.024v-4.024h1.584v5.778h-2.191l-2.93-4.337v4.337h-3.15l-.601-1.289h-3.212l-.584 1.289h-1.81c-.75 0-1.702-.149-2.241-.64-.544-.49-.826-1.154-.826-2.205 0-.857.168-1.64.833-2.26zm-3.18-.674h1.577v5.778h-1.577v-5.778zm-7.113 0h3.556c.79 0 1.373.019 1.873.277.489.258.782.635.782 1.279 0 .921-.688 1.397-1.09 1.54.339.115.628.318.766.487.218.287.256.544.256 1.06v1.135h-1.56l-.006-.729c0-.348.038-.848-.244-1.126-.226-.203-.57-.247-1.127-.247h-1.66v2.102h-1.546v-5.778zm-6.233 0h5.165v1.203h-3.619v1.042h3.532v1.184h-3.532v1.154h3.62v1.195h-5.166v-5.778z" fill="#2557D6"/></symbol><symbol fill="none" viewBox="0 0 55 36" id="method-generic" xmlns="http://www.w3.org/2000/svg"><path d="M0 4.5C0 2.015 2.052 0 4.583 0h45.834C52.948 0 55 2.015 55 4.5v27c0 2.485-2.052 4.5-4.583 4.5H4.583C2.052 36 0 33.985 0 31.5v-27z" fill="#D8E3F3"/><path fill="#B4BECF" d="M6 22h26v5H6zm33 0h4v5h-4zm6 0h4v5h-4z"/><path fill="#949EAE" d="M0 7h55v8H0z"/></symbol><symbol fill="none" viewBox="0 0 36 24" id="method-mastercard" xmlns="http://www.w3.org/2000/svg"><path d="M0 3a3 3 0 013-3h30a3 3 0 013 3v18a3 3 0 01-3 3H3a3 3 0 01-3-3V3z" fill="#FDEACE"/><path d="M21.756 4.896l-7.747.026.234 14.183 7.747-.027-.234-14.182z" fill="#FF5F00"/><path d="M14.52 12.042a8.975 8.975 0 013.268-7.11 8.868 8.868 0 00-5.52-1.913c-4.918.017-8.83 4.07-8.748 9.06.083 4.992 4.13 9.017 9.048 9a8.657 8.657 0 005.455-1.95 9.2 9.2 0 01-3.504-7.087z" fill="#EB001B"/><path d="M32.48 11.92c.083 4.992-3.83 9.044-8.748 9.06a8.868 8.868 0 01-5.52-1.912c2.05-1.662 3.317-4.225 3.269-7.11a9.237 9.237 0 00-3.505-7.087 8.658 8.658 0 015.456-1.95c4.918-.017 8.965 4.033 9.048 9z" fill="#F79E1B"/></symbol><symbol fill="none" viewBox="0 0 35 24" id="method-paypal" xmlns="http://www.w3.org/2000/svg"><path d="M0 3c0-1.657 1.306-3 2.917-3h29.166C33.694 0 35 1.343 35 3v18c0 1.657-1.306 3-2.917 3H2.917C1.306 24 0 22.657 0 21V3z" fill="#CCDEFF"/><path d="M7.854 8.638c-.366-.258-.843-.388-1.431-.388H4.144c-.18 0-.28.093-.299.278l-.925 5.976a.2.2 0 00.043.161.173.173 0 00.142.074h1.082c.19 0 .294-.093.314-.279l.256-1.61a.287.287 0 01.1-.191.433.433 0 01.213-.096c.086-.014.166-.021.242-.021.076 0 .166.005.27.014.105.01.172.015.2.015.817 0 1.457-.237 1.923-.71.465-.474.697-1.13.697-1.97 0-.577-.183-.994-.548-1.253zM6.68 10.432c-.047.342-.17.567-.37.674-.2.108-.484.161-.854.161l-.47.015.242-1.567c.019-.108.08-.161.185-.161h.27c.38 0 .656.056.827.168.17.112.227.35.17.71z" fill="#003087"/><path d="M31.898 8.25h-1.053c-.105 0-.167.054-.185.161l-.926 6.093-.014.03a.21.21 0 00.057.139.18.18 0 00.142.066h.94c.18 0 .28-.093.3-.279l.925-5.99v-.015c0-.136-.062-.205-.186-.205z" fill="#009CDE"/><path d="M19.168 10.608a.21.21 0 00-.057-.139c-.038-.044-.08-.066-.128-.066h-1.096c-.105 0-.19.05-.257.147l-1.51 2.285-.626-2.197c-.047-.156-.152-.235-.313-.235h-1.068c-.048 0-.09.022-.128.066a.21.21 0 00-.057.14c0 .019.092.307.277.864l.598 1.801c.214.645.325.987.335 1.025-.778 1.094-1.168 1.68-1.168 1.758 0 .127.062.19.186.19h1.096c.104 0 .19-.048.256-.146l3.632-5.39c.019-.02.028-.053.028-.103z" fill="#003087"/><path d="M29.378 10.403h-1.082c-.133 0-.214.162-.242.484-.247-.39-.698-.586-1.353-.586-.684 0-1.265.264-1.745.79a2.675 2.675 0 00-.719 1.861c0 .576.164 1.035.492 1.377.327.342.766.512 1.317.512a2.2 2.2 0 00.84-.175 1.68 1.68 0 00.67-.469c0 .01-.01.054-.03.132a.815.815 0 00-.028.175c0 .157.062.235.185.235h.983c.18 0 .285-.093.313-.279l.584-3.822a.201.201 0 00-.043-.162.174.174 0 00-.142-.073zM27.52 13.29a1.189 1.189 0 01-.876.366c-.276 0-.498-.078-.67-.234-.17-.156-.256-.371-.256-.645 0-.36.119-.666.356-.915a1.17 1.17 0 01.883-.374c.266 0 .486.08.662.242.176.161.264.383.264.667 0 .351-.121.649-.363.893z" fill="#009CDE"/><path d="M13.201 10.403H12.12c-.133 0-.214.162-.242.484-.256-.39-.707-.586-1.353-.586-.683 0-1.265.264-1.744.79a2.675 2.675 0 00-.72 1.861c0 .576.164 1.035.492 1.377.327.342.766.512 1.317.512.266 0 .541-.058.826-.175a1.8 1.8 0 00.684-.469.988.988 0 00-.057.308c0 .156.061.234.185.234h.982c.18 0 .285-.093.313-.279l.584-3.822a.201.201 0 00-.042-.162.174.174 0 00-.143-.073zm-1.858 2.893c-.242.24-.539.359-.89.359-.275 0-.496-.078-.662-.234-.166-.156-.25-.371-.25-.645 0-.36.12-.666.357-.915a1.17 1.17 0 01.883-.374.94.94 0 01.662.242c.175.161.263.383.263.667 0 .36-.12.661-.363.9z" fill="#003087"/><path d="M24.03 8.638c-.365-.258-.842-.388-1.43-.388h-2.265c-.19 0-.294.093-.313.278l-.925 5.976a.2.2 0 00.042.161.173.173 0 00.143.074h1.167c.114 0 .19-.064.228-.19l.257-1.7a.287.287 0 01.1-.19.433.433 0 01.213-.096c.085-.014.166-.021.242-.021.076 0 .166.005.27.014.105.01.172.015.2.015.816 0 1.457-.237 1.922-.71.465-.474.698-1.13.698-1.97 0-.577-.183-.994-.548-1.253zm-1.459 2.41c-.209.146-.522.22-.94.22l-.455.014.242-1.567c.019-.108.08-.162.185-.162h.256c.209 0 .375.01.499.03.123.02.242.08.356.183.114.102.17.251.17.447 0 .41-.104.688-.313.835z" fill="#009CDE"/></symbol><symbol fill="none" viewBox="0 0 35 24" id="method-visa" xmlns="http://www.w3.org/2000/svg"><path d="M0 3c0-1.657 1.306-3 2.917-3h29.166C33.694 0 35 1.343 35 3v18c0 1.657-1.306 3-2.917 3H2.917C1.306 24 0 22.657 0 21V3z" fill="#D8E3F3"/><path d="M30.122 7.526H28.29c-.555 0-.98.176-1.237.746l-3.496 8.202h2.473s.426-1.097.512-1.36h3.027c.085.307.299 1.316.299 1.316h2.217l-1.962-8.904zm-2.9 5.746c.214-.526.939-2.5.939-2.5 0 .044.213-.526.298-.833l.171.79s.469 2.148.554 2.587h-1.961v-.044zm-3.496.263c0 1.842-1.62 3.07-4.136 3.07-1.066 0-2.09-.219-2.644-.482l.341-2.018.299.132c.768.35 1.28.482 2.217.482.682 0 1.407-.263 1.407-.877 0-.395-.298-.658-1.236-1.096-.896-.439-2.09-1.14-2.09-2.413 0-1.754 1.663-2.938 4.009-2.938.895 0 1.663.175 2.132.395l-.341 1.93-.17-.176a4.473 4.473 0 00-1.792-.351c-.895.044-1.322.439-1.322.79 0 .394.512.701 1.322 1.096 1.365.658 2.004 1.403 2.004 2.456z" fill="#3362AB"/><path d="M2.917 7.614l.043-.175h3.667c.511 0 .895.175 1.023.745l.81 3.948c-.81-2.106-2.686-3.816-5.543-4.518z" fill="#F9B50B"/><path d="M13.62 7.526L9.91 16.43H7.396L5.263 8.974c1.535 1.008 2.814 2.587 3.283 3.684l.256.92 2.303-6.096h2.515v.044zm.98-.044h2.346l-1.492 8.948h-2.346l1.493-8.948z" fill="#3362AB"/></symbol><symbol fill="none" viewBox="0 0 24 24" id="mouse" xmlns="http://www.w3.org/2000/svg"><path d="M12 5a1 1 0 00-1 1v4a1 1 0 102 0V6a1 1 0 00-1-1z" fill="currentColor"/><path fill-rule="evenodd" clip-rule="evenodd" d="M4 8a8 8 0 1116 0v8a8 8 0 11-16 0V8zm14 0v8a6 6 0 01-12 0V8a6 6 0 1112 0z" fill="currentColor"/></symbol><symbol fill="none" viewBox="0 0 39 38" id="myaa-active-donations" xmlns="http://www.w3.org/2000/svg"><g clip-path="url(#bjclip0_1996_22668)" fill="#333"><path d="M17.651 37.682c-7.307 0-13.121-3.135-13.364-3.269l.54-.93c.056.032 5.814 3.13 12.824 3.13 7.02 0 18.67-4.918 19.856-6.496.424-.567.507-1.166.231-1.69-.424-.814-1.576-1.295-3.08-1.295-1.356 0-3.731 1.321-4.53 1.83l-.607-.894c.127-.08 3.175-2.007 5.136-2.007 1.93 0 3.445.701 4.067 1.884.463.888.348 1.91-.325 2.809-1.51 2.006-13.501 6.928-20.748 6.928z"/><path d="M27.234 31.604H13.568a.545.545 0 01-.551-.535c0-.294.248-.535.55-.535H27.24c.97 0 1.758-.765 1.758-1.707 0-.941-.788-1.706-1.758-1.706h-7.737c-.502 0-.992-.145-1.422-.418-1.212-.786-4.943-2.568-13.391-2.241a.537.537 0 01-.573-.514.544.544 0 01.529-.556c8.767-.348 12.74 1.573 14.047 2.418.242.155.523.24.81.24h7.731c1.576 0 2.86 1.247 2.86 2.777s-1.278 2.777-2.86 2.777z"/><path d="M4.249 37.249H.969A.962.962 0 010 36.302V22.364c0-.519.435-.941.97-.941h3.279c.534 0 .97.422.97.941v13.938a.962.962 0 01-.97.947zm-3.147-1.07h3.015V22.487H1.102V36.18zM21.613 0C15.81 0 11.088 4.585 11.088 10.22c0 5.633 4.723 10.218 10.525 10.218 5.803 0 10.526-4.585 10.526-10.219C32.14 4.585 27.422 0 21.613 0zm-7.24 14.36a.47.47 0 01-.386-.192.453.453 0 01.104-.648l9.694-6.843a.485.485 0 01.666.102.454.454 0 01-.104.647l-9.694 6.849a.495.495 0 01-.28.085zm4.838.396l-.54.423a.48.48 0 01-.303.101.48.48 0 01-.37-.17.452.452 0 01.072-.653l.54-.423a.485.485 0 01.672.07.456.456 0 01-.071.652zm8.547-6.078l-6.442 4.612a.5.5 0 01-.281.091.48.48 0 01-.386-.187.457.457 0 01.1-.648l6.441-4.611a.49.49 0 01.667.096.449.449 0 01-.099.647zm.077-3.9l-1.433 1.129a.48.48 0 01-.303.101.48.48 0 01-.369-.17.452.452 0 01.072-.654l1.432-1.128a.485.485 0 01.673.07.457.457 0 01-.072.652z"/></g><defs><clipPath id="bjclip0_1996_22668"><path fill="#fff" d="M0 0h39v37.682H0z"/></clipPath></defs></symbol><symbol fill="none" viewBox="0 0 34 38" id="myaa-comms" xmlns="http://www.w3.org/2000/svg"><g clip-path="url(#bkclip0_1996_22689)" fill="#333"><path d="M28.084 10.621l-.727.705 5.913 5.734.728-.705-5.914-5.734zM12.427 5.974l-.725-.708L17.134 0l5.288 5.127-.73.703-4.558-4.419-4.707 4.563zM5.692 11.09L.265 16.352l.727.705 5.427-5.261-.727-.705z"/><path d="M33.938 37.682H0V16.208h6.229v.997h-5.2v19.48h31.88v-19.48h-5.076v-.997h6.105v21.474z"/><path d="M28.393 28.022h-1.028V5.89H6.574v22.132h-1.03V4.892h22.85v23.13z"/><path d="M33.496 37.682H.566L0 37.134v-3.95L10.632 22.88a2.787 2.787 0 011.95-.783h8.898c.736 0 1.43.279 1.95.783l10.508 10.183v4.19l-.442.428zm-32.467-.997h31.88v-3.207l-10.205-9.89a1.765 1.765 0 00-1.224-.493h-8.899c-.457 0-.9.18-1.224.494L1.03 33.603v3.082zm5.031-11.8L.513 16.706H6.23l-.17 8.18zm21.994 0l5.54-8.179h-5.715l.175 8.18zm-5.262-14.866H10.426v.998h12.366v-.998zm0 4.089H10.426v.998h12.366v-.998zm0 4.09H10.426v.997h12.366v-.997z"/></g><defs><clipPath id="bkclip0_1996_22689"><path fill="#fff" d="M0 0h34v37.682H0z"/></clipPath></defs></symbol><symbol fill="none" viewBox="0 0 44 42" id="myaa-details" xmlns="http://www.w3.org/2000/svg"><g clip-path="url(#blclip0_1996_22657)" fill="#333"><path d="M16.385 23.7c-5.445 0-9.876-4.42-9.876-9.854 0-5.434 4.431-9.855 9.876-9.855 5.446 0 9.876 4.421 9.876 9.855 0 5.433-4.43 9.855-9.876 9.855zm0-18.626c-4.845 0-8.784 3.931-8.784 8.766s3.94 8.766 8.784 8.766c4.846 0 8.785-3.93 8.785-8.766 0-4.835-3.94-8.766-8.785-8.766zM32.765 42h-1.09c0-8.412-6.86-15.261-15.295-15.261-8.436 0-15.289 6.844-15.289 15.26H0c0-9.015 7.35-16.35 16.385-16.35 9.036 0 16.38 7.335 16.38 16.35z"/><path d="M32.765 42h-1.09c0-8.412-6.86-15.261-15.295-15.261-8.436 0-15.289 6.844-15.289 15.26H0c0-9.015 7.35-16.35 16.385-16.35 9.036 0 16.38 7.335 16.38 16.35z"/><path d="M42.254 0h-22.6c-.966 0-1.746.779-1.746 1.742v2.924a9.248 9.248 0 014.48 2.058v-.446h17.116v2.297H24.079a9.25 9.25 0 011.637 5.265c0 .082-.011.164-.011.245h13.804v2.298H25.356a9.333 9.333 0 01-7.443 6.637v3.25a15.811 15.811 0 0110.258 5.173H42.26c.966 0 1.746-.779 1.746-1.742V1.742A1.75 1.75 0 0042.254 0zm-2.745 24.196H22.393v-2.298h17.116v2.298z"/></g><defs><clipPath id="blclip0_1996_22657"><path fill="#fff" d="M0 0h44v42H0z"/></clipPath></defs></symbol><symbol fill="none" viewBox="0 0 42 41" id="myaa-donation-history" xmlns="http://www.w3.org/2000/svg"><g clip-path="url(#bmclip0_1996_22679)" fill="#333"><path d="M20.952 7.295c-7.454 0-13.52 5.862-13.52 13.064s6.066 13.063 13.52 13.063 13.52-5.861 13.52-13.063c0-7.202-6.06-13.064-13.52-13.064zm-9.3 18.362a.606.606 0 01-.5-.247.576.576 0 01.137-.826l12.455-8.746a.629.629 0 01.856.132.576.576 0 01-.136.826l-12.456 8.745a.614.614 0 01-.357.116zm6.213.508l-.691.542a.629.629 0 01-.861-.087.573.573 0 01.09-.832l.692-.542a.62.62 0 01.86.088c.21.251.17.623-.09.831zm10.983-7.771l-8.276 5.889a.631.631 0 01-.362.115.614.614 0 01-.493-.241.575.575 0 01.13-.826l8.276-5.895a.63.63 0 01.86.126.593.593 0 01-.135.832zm.096-4.991l-1.835 1.445a.63.63 0 01-.861-.088.573.573 0 01.09-.832l1.836-1.445a.62.62 0 01.86.088.573.573 0 01-.09.832z"/><path d="M20.997 40.58C9.42 40.58 0 31.48 0 20.289h1.133c0 10.584 8.91 19.193 19.864 19.193 10.955 0 19.864-8.609 19.864-19.193 0-10.585-8.91-19.193-19.864-19.193-4.65 0-9.176 1.587-12.739 4.465l-.725-.837C11.3 1.675 16.081 0 20.997 0c11.578 0 20.997 9.101 20.997 20.288 0 11.186-9.414 20.293-20.997 20.293z"/><path d="M12.552 6.748l-5.959-.673L7.29.317l1.127.126-.566 4.674 4.837.542-.136 1.089z"/></g><defs><clipPath id="bmclip0_1996_22679"><path fill="#fff" d="M0 0h42v40.581H0z"/></clipPath></defs></symbol><symbol fill="none" viewBox="0 0 106 29" id="paypal" xmlns="http://www.w3.org/2000/svg"><path fill-rule="evenodd" clip-rule="evenodd" d="M12.7.001H4.468c-.563 0-1.042.41-1.13.966L.008 22.076a.685.685 0 00.68.792h3.93c.563 0 1.042-.41 1.13-.967l.898-5.693a1.142 1.142 0 011.129-.966h2.606c5.422 0 8.552-2.625 9.37-7.824.367-2.275.015-4.063-1.05-5.315C17.53.73 15.454.001 12.7.001zm.95 7.71c-.45 2.954-2.707 2.954-4.89 2.954H7.519l.872-5.517a.686.686 0 01.677-.578h.57c1.486 0 2.889 0 3.613.847.432.506.565 1.256.4 2.294zm23.657-.095h-3.942a.687.687 0 00-.678.58l-.174 1.102-.276-.4c-.853-1.238-2.756-1.652-4.656-1.652-4.356 0-8.076 3.3-8.801 7.928-.377 2.308.159 4.515 1.468 6.055 1.202 1.415 2.92 2.005 4.965 2.005 3.51 0 5.457-2.257 5.457-2.257l-.176 1.096a.685.685 0 00.676.794h3.551c.565 0 1.041-.41 1.13-.966l2.131-13.492a.683.683 0 00-.675-.793zm-5.495 7.673c-.38 2.252-2.168 3.764-4.447 3.764-1.145 0-2.06-.367-2.647-1.063-.583-.69-.805-1.675-.62-2.77.356-2.233 2.174-3.793 4.419-3.793 1.119 0 2.029.371 2.628 1.073.6.709.839 1.698.667 2.789zM54.34 7.616h3.961c.555 0 .879.622.564 1.077L45.69 27.711a1.143 1.143 0 01-.94.491h-3.957a.686.686 0 01-.56-1.083l4.102-5.791-4.363-12.805a.686.686 0 01.651-.907h3.893c.506 0 .952.332 1.098.816l2.315 7.734 5.464-8.048c.214-.314.57-.502.947-.502z" fill="#253B80"/><path fill-rule="evenodd" clip-rule="evenodd" d="M97.29 22.075L100.668.58a.688.688 0 01.677-.58h3.803c.42 0 .743.377.676.793l-3.331 21.108a1.142 1.142 0 01-1.13.966h-3.397a.685.685 0 01-.676-.792zM71.417.001h-8.234c-.562 0-1.04.41-1.129.965l-3.329 21.11a.685.685 0 00.677.791h4.224a.8.8 0 00.79-.676l.945-5.983a1.142 1.142 0 011.129-.967h2.604c5.424 0 8.553-2.624 9.371-7.824.37-2.275.015-4.062-1.05-5.314C76.245.729 74.172 0 71.417 0zm.95 7.71c-.45 2.954-2.707 2.954-4.89 2.954h-1.241l.873-5.517a.684.684 0 01.676-.579h.57c1.485 0 2.888 0 3.612.847.433.506.564 1.257.4 2.295zm23.654-.095h-3.939a.683.683 0 00-.677.58l-.174 1.102-.277-.4C90.101 7.66 88.2 7.246 86.3 7.246c-4.357 0-8.076 3.299-8.8 7.927-.376 2.309.157 4.516 1.466 6.056 1.204 1.415 2.92 2.005 4.966 2.005 3.51 0 5.456-2.257 5.456-2.257l-.176 1.095a.686.686 0 00.68.795h3.549c.562 0 1.04-.41 1.129-.967L96.7 8.408a.687.687 0 00-.68-.792zm-5.494 7.673c-.378 2.252-2.168 3.763-4.448 3.763-1.142 0-2.06-.367-2.647-1.063-.582-.69-.802-1.674-.618-2.769.357-2.233 2.172-3.794 4.417-3.794 1.12 0 2.03.372 2.63 1.073.602.71.84 1.699.666 2.79z" fill="#179BD7"/></symbol><symbol fill="none" viewBox="0 0 98 65" id="paypal-cancel" xmlns="http://www.w3.org/2000/svg"><path fill-rule="evenodd" clip-rule="evenodd" d="M59.916 13H0v12h59.916A19.992 19.992 0 0159 19c0-2.09.32-4.106.916-6zM80 38.975c-.331.017-.665.025-1 .025-6.083 0-11.531-2.715-15.2-7H0v33h80V38.975zM9 49h10v9H9v-9zm36 0H27v9h18v-9z" fill="#333"/><circle cx="80.5" cy="17.5" r="17.5" fill="#333"/><path d="M74 24l13-13m0 13L74 11" stroke="#F8F3E8" stroke-width="3"/></symbol><symbol fill="none" viewBox="0 0 106 29" id="paypal-white" xmlns="http://www.w3.org/2000/svg"><path fill-rule="evenodd" clip-rule="evenodd" d="M12.7.001H4.468c-.563 0-1.042.41-1.13.966L.008 22.076a.685.685 0 00.68.792h3.93c.563 0 1.042-.41 1.13-.967l.898-5.693a1.142 1.142 0 011.129-.966h2.606c5.422 0 8.552-2.625 9.37-7.824.367-2.275.015-4.063-1.05-5.315C17.53.73 15.454.001 12.7.001zm.95 7.71c-.45 2.954-2.707 2.954-4.89 2.954H7.519l.872-5.517a.686.686 0 01.677-.578h.57c1.486 0 2.889 0 3.613.847.432.506.565 1.256.4 2.294zm23.657-.095h-3.942a.687.687 0 00-.678.58l-.174 1.102-.276-.4c-.853-1.238-2.756-1.652-4.656-1.652-4.356 0-8.076 3.3-8.801 7.928-.377 2.308.159 4.515 1.468 6.055 1.202 1.415 2.92 2.005 4.965 2.005 3.51 0 5.457-2.257 5.457-2.257l-.176 1.096a.685.685 0 00.676.794h3.551c.565 0 1.041-.41 1.13-.966l2.131-13.492a.683.683 0 00-.675-.793zm-5.495 7.673c-.38 2.252-2.168 3.764-4.447 3.764-1.145 0-2.06-.367-2.647-1.063-.583-.69-.805-1.675-.62-2.77.356-2.233 2.174-3.793 4.419-3.793 1.119 0 2.029.371 2.628 1.073.6.709.839 1.698.667 2.789zM54.34 7.616h3.961c.555 0 .879.622.564 1.077L45.69 27.711a1.143 1.143 0 01-.94.491h-3.957a.686.686 0 01-.56-1.083l4.102-5.791-4.363-12.805a.686.686 0 01.651-.907h3.893c.506 0 .952.332 1.098.816l2.315 7.734 5.464-8.048c.214-.314.57-.502.947-.502z" fill="#D6D6D6"/><path fill-rule="evenodd" clip-rule="evenodd" d="M97.29 22.075L100.668.58a.688.688 0 01.677-.58h3.803c.42 0 .743.377.676.793l-3.331 21.108a1.142 1.142 0 01-1.13.966h-3.397a.685.685 0 01-.676-.792zM71.417.001h-8.234c-.562 0-1.04.41-1.129.965l-3.329 21.11a.685.685 0 00.677.791h4.224a.8.8 0 00.79-.676l.945-5.983a1.142 1.142 0 011.129-.967h2.604c5.424 0 8.553-2.624 9.371-7.824.37-2.275.015-4.062-1.05-5.314C76.245.729 74.172 0 71.417 0zm.95 7.71c-.45 2.954-2.707 2.954-4.89 2.954h-1.241l.873-5.517a.684.684 0 01.676-.579h.57c1.485 0 2.888 0 3.612.847.433.506.564 1.257.4 2.295zm23.654-.095h-3.939a.683.683 0 00-.677.58l-.174 1.102-.277-.4C90.101 7.66 88.2 7.246 86.3 7.246c-4.357 0-8.076 3.299-8.8 7.927-.376 2.309.157 4.516 1.466 6.056 1.204 1.415 2.92 2.005 4.966 2.005 3.51 0 5.456-2.257 5.456-2.257l-.176 1.095a.686.686 0 00.68.795h3.549c.562 0 1.04-.41 1.129-.967L96.7 8.408a.687.687 0 00-.68-.792zm-5.494 7.673c-.378 2.252-2.168 3.763-4.448 3.763-1.142 0-2.06-.367-2.647-1.063-.582-.69-.802-1.674-.618-2.769.357-2.233 2.172-3.794 4.417-3.794 1.12 0 2.03.372 2.63 1.073.602.71.84 1.699.666 2.79z" fill="#fff"/></symbol><symbol fill="none" viewBox="0 0 24 24" id="pen" xmlns="http://www.w3.org/2000/svg"><path fill-rule="evenodd" clip-rule="evenodd" d="M21.264 2.293a1 1 0 00-1.415 0l-.872.872a3.001 3.001 0 00-3.415.587L4.955 14.358l5.657 5.657L21.22 9.408a2.999 2.999 0 00.586-3.414l.873-.873a1 1 0 000-1.414l-1.415-1.414zm-4.268 8.51l-6.384 6.384-2.828-2.829 6.383-6.383 2.829 2.829zm1.818-1.818l.99-.99a1 1 0 000-1.415l-1.413-1.414a1 1 0 00-1.415 0l-.99.99 2.828 2.83z" fill="currentColor"/><path d="M2 22.95l2.122-7.778 5.656 5.657L2 22.95z" fill="currentColor"/></symbol><symbol fill="none" viewBox="0 0 24 24" id="phone" xmlns="http://www.w3.org/2000/svg"><path d="M22 12A10.002 10.002 0 0012 2v2a8.003 8.003 0 017.391 4.938A8 8 0 0120 12h2zM2 10V5a1 1 0 011-1h5a1 1 0 011 1v4a1 1 0 01-1 1H6a8 8 0 008 8v-2a1 1 0 011-1h4a1 1 0 011 1v5a1 1 0 01-1 1h-5C7.373 22 2 16.627 2 10z" fill="currentColor"/><path d="M17.543 9.704A5.99 5.99 0 0118 12h-1.8A4.199 4.199 0 0012 7.8V6a6 6 0 015.543 3.704z" fill="currentColor"/></symbol><symbol fill="none" viewBox="0 0 24 24" id="pin" xmlns="http://www.w3.org/2000/svg"><path fill-rule="evenodd" clip-rule="evenodd" d="M16.272 10.272a4 4 0 11-8 0 4 4 0 018 0zm-2 0a2 2 0 11-4 0 2 2 0 014 0z" fill="currentColor"/><path fill-rule="evenodd" clip-rule="evenodd" d="M5.794 16.518a9 9 0 1112.724-.312l-6.206 6.518-6.518-6.206zm11.276-1.691l-4.827 5.07-5.07-4.827a7 7 0 119.897-.243z" fill="currentColor"/></symbol><symbol fill="none" viewBox="0 0 24 24" id="play-button" xmlns="http://www.w3.org/2000/svg"><path d="M15 12.33l-6 4.33V8l6 4.33z" fill="currentColor"/></symbol><symbol fill="none" viewBox="0 0 24 24" id="play-button-r" xmlns="http://www.w3.org/2000/svg"><path fill-rule="evenodd" clip-rule="evenodd" d="M19 3H5a2 2 0 00-2 2v14a2 2 0 002 2h14a2 2 0 002-2V5a2 2 0 00-2-2zM5 1a4 4 0 00-4 4v14a4 4 0 004 4h14a4 4 0 004-4V5a4 4 0 00-4-4H5z" fill="currentColor"/><path d="M16 12l-6 4.33V7.67L16 12z" fill="currentColor"/></symbol><symbol fill="none" viewBox="0 0 24 24" id="push-down" xmlns="http://www.w3.org/2000/svg"><path d="M11 1h2v14.485l3.243-3.242 1.414 1.414L12 19.314l-5.657-5.657 1.414-1.414L11 15.485V1zm7 19.288H6v2h12v-2z" fill="currentColor"/></symbol><symbol fill="none" viewBox="0 0 106 61" id="quotation-mark" xmlns="http://www.w3.org/2000/svg"><path d="M105.25 0a1198.913 1198.913 0 00-7 31.5C96.083 42.667 94.333 52.583 93 61.25H58.75L57 58.5c2.333-8.833 5.417-18.5 9.25-29C70.25 19 74.333 9.167 78.5 0h26.75zm-57 0a1198.913 1198.913 0 00-7 31.5C39.083 42.667 37.333 52.583 36 61.25H1.75L0 58.5c2.333-8.833 5.417-18.5 9.25-29C13.25 19 17.333 9.167 21.5 0h26.75z" fill="currentColor"/></symbol><symbol fill="none" viewBox="0 0 24 24" id="search" xmlns="http://www.w3.org/2000/svg"><path fill-rule="evenodd" clip-rule="evenodd" d="M18.319 14.433A8.001 8.001 0 006.343 3.868a8 8 0 0010.564 11.976l.043.045 4.242 4.243a1 1 0 101.415-1.415l-4.243-4.242a1.116 1.116 0 00-.045-.042zm-2.076-9.15a6 6 0 11-8.485 8.485 6 6 0 018.485-8.485z" fill="currentColor"/></symbol><symbol fill="none" viewBox="0 0 24 24" id="smartphone" xmlns="http://www.w3.org/2000/svg"><path d="M13 16h-2v2h2v-2z" fill="currentColor"/><path fill-rule="evenodd" clip-rule="evenodd" d="M5 4a2 2 0 012-2h10a2 2 0 012 2v16a2 2 0 01-2 2H7a2 2 0 01-2-2V4zm2 0h10v16H7V4z" fill="currentColor"/></symbol><symbol fill="none" viewBox="0 0 24 24" id="software-download" xmlns="http://www.w3.org/2000/svg"><path d="M11 5a1 1 0 112 0v7.158l3.243-3.243 1.414 1.414L12 15.986 6.343 10.33l1.414-1.414L11 12.158V5z" fill="currentColor"/><path d="M4 14h2v4h12v-4h2v4a2 2 0 01-2 2H6a2 2 0 01-2-2v-4z" fill="currentColor"/></symbol><symbol fill="none" viewBox="0 0 80 80" id="success-tick" xmlns="http://www.w3.org/2000/svg"><circle cx="40" cy="40" r="40" fill="#333"/><path d="M22 41.813L34.766 54 62 28" stroke="#F8F3E8" stroke-width="3"/></symbol><symbol fill="none" viewBox="0 0 48 40" id="twitter" xmlns="http://www.w3.org/2000/svg"><path d="M15.1 39.5c18.11 0 28.017-15.007 28.017-28.016 0-.422-.01-.853-.029-1.275A19.998 19.998 0 0048 5.11c-1.795.798-3.7 1.32-5.652 1.546a9.9 9.9 0 004.33-5.445 19.794 19.794 0 01-6.251 2.39 9.86 9.86 0 00-16.788 8.979A27.97 27.97 0 013.346 2.299 9.859 9.859 0 006.393 15.44a9.86 9.86 0 01-4.462-1.228v.122a9.844 9.844 0 007.901 9.656 9.788 9.788 0 01-4.442.169 9.867 9.867 0 009.195 6.844A19.75 19.75 0 010 35.077 27.937 27.937 0 0015.1 39.5z" fill="currentColor"/></symbol><symbol fill="none" viewBox="0 0 24 24" id="user" xmlns="http://www.w3.org/2000/svg"><path fill-rule="evenodd" clip-rule="evenodd" d="M16 7a4 4 0 11-8 0 4 4 0 018 0zm-2 0a2 2 0 11-4 0 2 2 0 014 0z" fill="currentColor"/><path d="M16 15a1 1 0 00-1-1H9a1 1 0 00-1 1v6H6v-6a3 3 0 013-3h6a3 3 0 013 3v6h-2v-6z" fill="currentColor"/></symbol><symbol fill="none" viewBox="0 0 14 9" id="youtube" xmlns="http://www.w3.org/2000/svg"><path d="M12.772 1.525A1.549 1.549 0 0011.677.43C10.74.196 6.751.196 6.751.196s-3.91 0-4.926.234A1.549 1.549 0 00.731 1.525C.574 2.542.574 4.575.574 4.575s0 2.032.235 3.049a1.55 1.55 0 001.094 1.095c.939.234 4.927.234 4.927.234s3.91 0 4.926-.234a1.549 1.549 0 001.094-1.095c.235-1.016.235-3.05.235-3.05s0-2.032-.313-3.049zM5.578 6.451V2.698l3.285 1.877L5.578 6.45z" fill="currentColor"/></symbol></svg>